<svg xmlns="http://www.w3.org/2000/svg" viewBox="0 0 221.57 85.88"><defs><style>.cls-1,.cls-3{fill:#4c4c4c;}.cls-2{fill:#fff;}.cls-3{font-size:41.78px;letter-spacing:-0.02em;}.cls-3,.cls-5{font-family:Montserrat-Bold, Montserrat Bold;font-weight:700;}.cls-4{letter-spacing:-0.01em;}.cls-5{font-size:32.1px;fill:#e21e1e;letter-spacing:-0.02em;}</style></defs><g id="Layer_2" data-name="Layer 2"><g id="OBJECTS"><circle class="cls-1" cx="42.94" cy="42.94" r="42.94"/><path class="cls-2" d="M70.75,37.78a2.77,2.77,0,0,1,4.08,1c.44,1,.27,2.34,1.11,3.06a2.12,2.12,0,0,0,2.9-.55,5.87,5.87,0,0,0,.94-3.12,41.39,41.39,0,0,0-.06-9.95A39.73,39.73,0,0,0,66.39,11a11.53,11.53,0,0,1-1.13-.38c-.88-.38-1.63-1-2.51-1.4A2.67,2.67,0,0,0,60,9.36c-.92.76-.8,2.21-.41,3.33s1,2.29.74,3.45a6.87,6.87,0,0,1-1.45,2.46,10.79,10.79,0,0,0-2,4.63c-.19,1.07-.08,2.41.89,2.92s2-.08,3-.28,2.42.52,2,1.47-1.7.77-2.13,1.57a1.29,1.29,0,0,0,.47,1.54,3.73,3.73,0,0,0,1.63.59,10.31,10.31,0,0,1,0,5.09c-.58,1.62-2.31,3-4,2.48-1.34-.39-2.17-1.78-3.46-2.29a5.66,5.66,0,0,0-2-.29c-2.74-.08-6,.15-7.37,2.53a.73.73,0,0,0-.11.63.77.77,0,0,0,.53.35,19.2,19.2,0,0,0,6.65.81,6.18,6.18,0,0,1,2.19.1c2.09.68,2.44,3.47,3.84,5.17,1.64,2,4.55,2.28,7.14,2.4a3.1,3.1,0,0,0,1.46-.17,3,3,0,0,0,1.16-1.26C70.47,43.92,72,40.65,70.75,37.78Z"/><path class="cls-2" d="M19.4,11.09a1.49,1.49,0,0,0-.61,1.26A1.89,1.89,0,0,1,21,14.26a3.06,3.06,0,0,1-2,2.57,9,9,0,0,1-3.39.5l-3,.05A39.52,39.52,0,0,0,4.63,32.86a11.09,11.09,0,0,0,1.76-1.08c.76-.45,1.91-.62,2.41.11a17.19,17.19,0,0,0-1.75,9.3,1.26,1.26,0,0,0,.3.83,1.3,1.3,0,0,0,1,.24c1.81-.07,4.09-.51,4.45-2.28.15-.72-.09-1.51.19-2.18.39-.93,1.57-1.21,2.57-1.23a2.78,2.78,0,0,1,2.24.77A3.14,3.14,0,0,1,18,40a66.73,66.73,0,0,1-2.61,8.79,2.26,2.26,0,0,0-.16,1.79c.48.94,1.94.76,2.75,1.44s.75,1.76,1.42,2.44,1.81.66,2.66,1.13c1.69.94,1.7,3.45.82,5.17A7.77,7.77,0,0,1,21.15,63c-1.38,1.27-3.25,2.1-4.11,3.76a5.26,5.26,0,0,0,.5,5.13,12.41,12.41,0,0,0,4,3.55,18.6,18.6,0,0,0,8.17,3.09,9.18,9.18,0,0,0,7.9-3c.23,1,.83,2.31,1.86,2.13.65-.12,1-.8,1.41-1.34A4.47,4.47,0,0,1,44,74.55c.72,2.29,1.87,5,4.25,5.32a6.36,6.36,0,0,0,2.21-.19l4-.83a6.32,6.32,0,0,0,2.28-.79,6.34,6.34,0,0,0,2.07-3.37q1.32-3.73,2.62-7.45a9.61,9.61,0,0,0,.8-4.2c-.21-1.87-1.52-3.64-1.1-5.48-1.38.39-2.37,1.56-3.61,2.28s-3.19.7-3.7-.63c-.21-.53-.13-1.17-.47-1.63a2.94,2.94,0,0,0-.81-.63,3.24,3.24,0,0,1-1.16-3.68c-.49-1.14-2.27.76-3.38.21-.64-.31-.62-1.21-.65-1.92a5.31,5.31,0,0,0-9.48-3.05c-1.57-1.3-3.62-2.67-5.49-1.85-2.3,1-2.64,4.79-5.11,5.31s-3.94-2.5-6.16-3.52a6.05,6.05,0,0,1-1.42-.7c-1-.84-.77-2.43-.44-3.71a3.92,3.92,0,0,1,.86-1.84c.67-.65,1.71-.73,2.5-1.22C24.19,40,24.4,37.83,24,36.06s-1.34-3.45-1.39-5.27,1.26-3.9,3.07-3.74a12.5,12.5,0,0,0,4.9,3.1c1.89.47,4.22-.22,5-2a2.7,2.7,0,0,1,.52-1c.66-.59,1.78,0,2.55-.43,1.11-.63.32-2.31.43-3.58a2.33,2.33,0,0,1,2.53-2L41,18.93a2.24,2.24,0,0,0-3.07,2.32l-3.47-.16a1.21,1.21,0,0,1-.86-.28,1.17,1.17,0,0,1-.13-.94c.21-1.47.41-2.95.62-4.42.17-1.19.47-2.56,1.56-3.07,1.41-.67,3.11.63,4.6.18a2.14,2.14,0,0,0,1.2-3l1.87-.41A2.41,2.41,0,0,1,43,7.41c1,.21,1.75,1.14,2.56,1.83s2.12,1.13,2.86.37a35.35,35.35,0,0,0-3.59-6.23c-.63,0-1.26,0-1.9,0A39.43,39.43,0,0,0,19.4,11.09Z"/><text class="cls-3" transform="translate(87.47 74.69)">N<tspan class="cls-4" x="26.65" y="0">E</tspan><tspan x="46.75" y="0" xml:space="preserve">WS  </tspan></text><text class="cls-5" transform="translate(84.74 36.22)"><tspan xml:space="preserve">WORLD      </tspan></text></g></g></svg>